<svg xmlns="http://www.w3.org/2000/svg" viewBox="0 0 459.08 459.08"><defs><style>.cls-1{fill:#1a1a1a;}.cls-2{fill:#fff;}</style></defs><g id="Layer_2" data-name="Layer 2"><g id="svg"><circle class="cls-1" cx="229.54" cy="229.54" r="218.83"/><path d="M229.54,0C102.77,0,0,102.77,0,229.54S102.77,459.08,229.54,459.08,459.08,356.31,459.08,229.54,356.31,0,229.54,0Zm0,448.37c-120.86,0-218.83-98-218.83-218.83s98-218.83,218.83-218.83,218.83,98,218.83,218.83S350.39,448.37,229.54,448.37Z"/><path class="cls-2" d="M108.61,218l14.85,48.35,14.86-53.59,24.1-4.25L138,286.92l-29.3,5.16L84.52,222.25Z"/><path class="cls-2" d="M190.17,222l0,9.21,22.46-4-.08,17.49-22.46,4,0,10.47,25.52-4.5v18.53l-48.18,8.49.09-74.11,48.19-8.5,0,18.42Z"/><path class="cls-2" d="M311.15,182.29l-.09,74.12-22.56,4,0-36.84-11.16,38.81L258,265.77l-11.14-35.19,0,37.15-22.67,4,.09-74.11L252,192.72l15.89,41.78,15.55-47.33Z"/><path class="cls-2" d="M344,194.92l0,9.2,22.46-4-.07,17.49-22.46,4-.05,10.48,25.52-4.5v18.52l-48.19,8.5.09-74.12L369.55,172l0,18.42Z"/><path class="cls-2" d="M379.31,158.5a4.63,4.63,0,1,0,4.63,4.63A4.64,4.64,0,0,0,379.31,158.5Zm0,8.65a4,4,0,1,1,4-4A4,4,0,0,1,379.31,167.15Z"/><path class="cls-2" d="M379.43,161.12c-1.14,0-1.58,1-1.59,1.91s.48,2,1.59,2a1.44,1.44,0,0,0,1.11-.53l.58.68a2.18,2.18,0,0,1-1.69.86c-1.66,0-2.45-1.49-2.44-3s.73-2.91,2.44-2.91a2.23,2.23,0,0,1,1.75.84l-.59.73A1.56,1.56,0,0,0,379.43,161.12Z"/></g></g></svg>