<svg xmlns="http://www.w3.org/2000/svg" viewBox="0 0 285.02 120.09"><defs><style>.cls-1{fill:#fff;}</style></defs><g id="Layer_2" data-name="Layer 2"><g id="svg"><path class="cls-1" d="M24.09,46,38.93,94.36,53.8,40.77l24.09-4.25-24.38,78.4-29.3,5.17L0,50.26Z"/><path class="cls-1" d="M105.64,50.05l0,9.2,22.46-4-.07,17.49-22.46,4,0,10.48,25.52-4.5v18.52l-48.19,8.5L83,35.62l48.19-8.49,0,18.42Z"/><path class="cls-1" d="M226.63,10.3l-.09,74.11-22.57,4,0-36.85L192.85,90.35l-19.4,3.42L162.3,58.58l0,37.15-22.67,4,.09-74.12,27.77-4.89L183.41,62.5,199,15.18Z"/><path class="cls-1" d="M259.49,22.92l0,9.2L282,28.17l-.08,17.49-22.46,4,0,10.47,25.52-4.5V74.11l-48.18,8.5.09-74.11L285,0V18.42Z"/></g></g></svg>